<?xml version="1.0" encoding="utf-8"?>
<!-- Generator: Adobe Illustrator 17.0.0, SVG Export Plug-In . SVG Version: 6.00 Build 0)  -->
<!DOCTYPE svg PUBLIC "-//W3C//DTD SVG 1.1//EN" "http://www.w3.org/Graphics/SVG/1.1/DTD/svg11.dtd">
<svg version="1.1" id="Layer_1" xmlns="http://www.w3.org/2000/svg" xmlns:xlink="http://www.w3.org/1999/xlink" x="0px" y="0px"
	 width="595.28px" height="175px" viewBox="0 332.445 595.28 175" enable-background="new 0 332.445 595.28 175"
	 xml:space="preserve">
<polygon fill="#878787" points="52.737,378.078 63.933,378.078 82.052,406.214 100.171,378.078 111.219,378.078 111.219,437.591 
	100.907,437.591 100.907,394.871 82.052,423.007 81.757,423.007 63.196,395.018 63.196,437.591 52.737,437.591 "/>
<g>
	<g>
		<path fill="#878787" d="M154.97,438.622c-4.567,0-8.839-0.737-12.521-2.357c-3.83-1.62-7.071-3.83-9.722-6.629
			c-2.652-2.799-4.861-6.04-6.334-9.722c-1.473-3.683-2.357-7.66-2.357-11.932v-0.147c0-4.125,0.737-8.102,2.357-11.932
			c1.473-3.683,3.683-6.924,6.482-9.722s6.04-5.009,9.87-6.629c3.83-1.62,7.955-2.504,12.521-2.504
			c4.567,0,8.839,0.737,12.521,2.357c3.83,1.62,7.071,3.83,9.722,6.629s4.861,6.04,6.334,9.722c1.473,3.683,2.357,7.66,2.357,11.932
			v0.147c0,4.125-0.737,8.102-2.357,11.932c-1.473,3.683-3.683,6.924-6.482,9.722s-6.04,5.009-9.87,6.629
			C163.809,437.738,159.537,438.622,154.97,438.622 M155.118,429.047c2.946,0,5.598-0.589,8.102-1.62
			c2.504-1.178,4.567-2.652,6.334-4.567c1.768-1.915,3.094-4.125,4.125-6.629s1.473-5.303,1.473-8.102v-0.295
			c0-2.946-0.442-5.598-1.473-8.249c-1.031-2.652-2.357-4.861-4.125-6.776c-1.768-1.915-3.977-3.388-6.334-4.567
			c-2.504-1.178-5.156-1.768-8.102-1.768c-2.946,0-5.598,0.589-8.102,1.62c-2.504,1.178-4.567,2.652-6.334,4.567
			c-1.768,1.915-3.094,4.125-4.125,6.629s-1.473,5.303-1.473,8.102v0.442c0,2.946,0.442,5.598,1.473,8.249
			c1.031,2.652,2.357,4.861,4.125,6.776c1.768,1.915,3.977,3.388,6.334,4.567C149.52,428.458,152.171,429.047,155.118,429.047"/>
	</g>
	<g>
		<polygon fill="#878787" points="213.452,387.8 194.597,387.8 194.597,378.078 242.914,378.078 242.914,387.8 224.059,387.8 
			224.059,437.591 213.452,437.591 		"/>
	</g>
	<g>
		<path fill="#878787" d="M282.393,438.622c-4.567,0-8.839-0.737-12.521-2.357c-3.83-1.62-7.071-3.83-9.722-6.629
			c-2.652-2.799-4.861-6.04-6.334-9.722c-1.473-3.683-2.357-7.66-2.357-11.932v-0.147c0-4.125,0.737-8.102,2.357-11.932
			c1.473-3.683,3.683-6.924,6.482-9.722s6.04-5.009,9.87-6.629c3.83-1.62,7.955-2.504,12.521-2.504s8.839,0.737,12.521,2.357
			c3.83,1.62,7.071,3.83,9.723,6.629c2.652,2.799,4.861,6.04,6.334,9.722c1.473,3.683,2.357,7.66,2.357,11.932v0.147
			c0,4.125-0.737,8.102-2.357,11.932c-1.473,3.683-3.683,6.924-6.482,9.722s-6.04,5.009-9.87,6.629S286.96,438.622,282.393,438.622
			 M282.541,429.047c2.946,0,5.598-0.589,8.102-1.62c2.504-1.178,4.567-2.652,6.334-4.567c1.768-1.915,3.094-4.125,4.125-6.629
			s1.473-5.303,1.473-8.102v-0.295c0-2.946-0.442-5.598-1.473-8.249s-2.357-4.861-4.125-6.776c-1.768-1.915-3.977-3.388-6.334-4.567
			c-2.504-1.178-5.156-1.768-8.102-1.768s-5.598,0.589-8.102,1.62c-2.504,1.178-4.567,2.652-6.334,4.567
			c-1.768,1.915-3.094,4.125-4.125,6.629c-1.031,2.504-1.473,5.303-1.473,8.102v0.442c0,2.946,0.442,5.598,1.473,8.249
			c1.031,2.652,2.357,4.861,4.125,6.776c1.768,1.915,3.977,3.388,6.334,4.567C276.796,428.605,279.595,429.047,282.541,429.047"/>
	</g>
	<g>
		<path fill="#878787" d="M326.292,378.078h26.516c3.683,0,7.071,0.589,10.017,1.62c2.946,1.031,5.303,2.504,7.218,4.419
			c1.62,1.62,2.799,3.535,3.683,5.745c0.884,2.21,1.326,4.567,1.326,7.071v0.147c0,2.504-0.295,4.567-1.031,6.629
			c-0.737,1.915-1.62,3.683-2.946,5.156c-1.178,1.473-2.799,2.799-4.419,3.83c-1.768,1.031-3.683,1.915-5.745,2.357l16.057,22.538
			h-12.374l-14.731-20.771h-0.147h-12.963v20.771h-10.312v-59.513H326.292z M351.924,407.54c3.683,0,6.776-0.884,8.986-2.652
			s3.388-4.272,3.388-7.366v-0.147c0-3.241-1.031-5.745-3.241-7.366c-2.21-1.62-5.156-2.504-9.133-2.504h-15.32v20.034
			C336.604,407.54,351.924,407.54,351.924,407.54z"/>
	</g>
	<g>
		<path fill="#FFFFFF" d="M408.638,438.475c-4.567,0-8.986-0.737-13.111-2.357c-4.125-1.62-8.102-3.977-11.637-7.218l6.334-7.513
			c2.946,2.504,5.745,4.419,8.691,5.745c2.946,1.326,6.334,2.062,10.017,2.062c3.241,0,5.745-0.737,7.66-2.062
			c1.915-1.326,2.799-3.241,2.799-5.45v-0.147c0-1.031-0.147-2.062-0.589-2.799c-0.295-0.884-1.031-1.62-2.062-2.357
			c-1.031-0.737-2.357-1.473-4.125-2.062c-1.768-0.589-3.977-1.178-6.776-1.915c-3.241-0.737-6.04-1.62-8.544-2.504
			c-2.504-0.884-4.567-2.062-6.187-3.388c-1.62-1.326-2.946-2.946-3.83-4.861c-0.884-1.915-1.326-4.272-1.326-6.924v-0.147
			c0-2.504,0.442-4.861,1.473-7.071c1.031-2.062,2.357-3.977,4.125-5.451c1.768-1.473,3.83-2.652,6.334-3.535
			c2.504-0.884,5.156-1.326,8.102-1.326c4.419,0,8.249,0.589,11.785,1.915c3.535,1.326,6.776,3.094,9.87,5.598l-5.598,7.955
			c-2.652-1.915-5.45-3.535-8.102-4.567c-2.652-1.031-5.303-1.62-8.102-1.62c-3.094,0-5.451,0.737-7.071,2.062
			c-1.768,1.326-2.504,3.094-2.504,5.009v0.147c0,1.178,0.147,2.21,0.589,3.094c0.442,0.884,1.178,1.62,2.21,2.357
			s2.504,1.326,4.419,2.062c1.915,0.589,4.125,1.326,7.071,1.915c3.094,0.737,5.892,1.62,8.249,2.652
			c2.357,1.031,4.419,2.21,6.04,3.535s2.799,2.946,3.683,4.861c0.884,1.915,1.178,3.977,1.178,6.482v0.147
			c0,2.799-0.589,5.303-1.62,7.513s-2.504,4.125-4.272,5.598c-1.915,1.473-4.125,2.652-6.629,3.535
			C414.531,438.033,411.732,438.475,408.638,438.475"/>
	</g>
	<g>
		<path fill="#FFFFFF" d="M463.143,377.636h9.722l26.221,59.955h-11.048l-6.04-14.436h-28.136l-6.187,14.436h-10.754
			L463.143,377.636z M478.169,414.021l-10.312-23.864l-10.164,23.864H478.169z"/>
	</g>
	<g>
		<path fill="#FFFFFF" d="M537.534,438.622c-4.714,0-8.839-0.737-12.669-2.357c-3.83-1.62-7.071-3.683-9.722-6.482
			c-2.652-2.799-4.714-6.04-6.187-9.722c-1.473-3.683-2.21-7.807-2.21-12.079v-0.147c0-4.125,0.737-8.102,2.21-11.785
			c1.473-3.683,3.683-7.071,6.334-9.87s6.04-5.009,9.722-6.629c3.83-1.62,7.955-2.504,12.374-2.504c2.652,0,5.009,0.147,7.071,0.589
			c2.062,0.295,4.125,0.884,5.892,1.62c1.768,0.737,3.535,1.473,5.156,2.504s3.241,2.21,4.714,3.388l-6.629,7.955
			c-1.178-1.031-2.357-1.768-3.535-2.652c-1.178-0.737-2.504-1.473-3.683-2.062c-1.326-0.589-2.799-1.031-4.272-1.326
			c-1.62-0.295-3.241-0.442-5.156-0.442c-2.652,0-5.303,0.589-7.66,1.768c-2.357,1.178-4.419,2.652-6.187,4.567
			c-1.768,1.915-3.094,4.125-4.125,6.629s-1.473,5.303-1.473,8.102v0.147c0,3.094,0.442,5.892,1.473,8.544s2.357,4.861,4.125,6.776
			c1.768,1.915,3.83,3.388,6.334,4.419c2.504,1.031,5.156,1.62,8.249,1.62c2.799,0,5.451-0.442,7.955-1.178
			c2.504-0.884,4.567-1.915,6.334-3.241v-11.196h-15.173v-9.133h25.337v25.043c-1.473,1.178-3.094,2.504-4.861,3.535
			c-1.768,1.178-3.683,2.062-5.745,2.946c-2.062,0.884-4.272,1.473-6.629,2.062C542.69,438.328,540.186,438.622,537.534,438.622"/>
	</g>
	<g>
		<polygon fill="#FFFFFF" points="125.95,453.648 128.307,453.648 132.284,459.835 136.409,453.648 138.766,453.648 
			138.766,466.758 136.556,466.758 136.556,457.331 132.432,463.518 132.284,463.518 128.16,457.331 128.16,466.758 125.95,466.758 
					"/>
	</g>
	<g>
		<polygon fill="#FFFFFF" points="153.497,453.648 163.22,453.648 163.22,455.71 155.707,455.71 155.707,459.098 162.336,459.098 
			162.336,461.161 155.707,461.161 155.707,464.696 163.367,464.696 163.367,466.758 153.497,466.758 		"/>
	</g>
	<g>
		<path fill="#FFFFFF" d="M183.401,467.053c-1.031,0-1.915-0.147-2.652-0.589c-0.884-0.295-1.473-0.884-2.062-1.473
			c-0.589-0.589-1.031-1.326-1.473-2.21c-0.295-0.884-0.442-1.768-0.442-2.652l0,0c0-0.884,0.147-1.768,0.442-2.652
			c0.295-0.884,0.737-1.473,1.473-2.21c0.589-0.589,1.326-1.178,2.21-1.473c0.884-0.295,1.768-0.589,2.799-0.589
			c0.589,0,1.178,0,1.62,0.147c0.442,0.147,0.884,0.295,1.326,0.442c0.442,0.147,0.737,0.442,1.178,0.589
			c0.295,0.295,0.737,0.589,1.031,0.884l-1.473,1.768c-0.589-0.442-1.031-0.884-1.62-1.178c-0.589-0.295-1.326-0.442-2.062-0.442
			c-0.589,0-1.178,0.147-1.768,0.295c-0.589,0.295-1.031,0.589-1.326,1.031c-0.442,0.442-0.737,0.884-0.884,1.473
			s-0.295,1.178-0.295,1.768l0,0c0,0.589,0.147,1.178,0.295,1.768c0.147,0.589,0.442,1.031,0.884,1.473
			c0.442,0.442,0.884,0.737,1.326,1.031c0.589,0.295,1.178,0.295,1.768,0.295c0.737,0,1.473-0.147,2.062-0.442
			c0.589-0.295,1.178-0.737,1.768-1.178l1.473,1.473c-0.295,0.295-0.737,0.737-1.031,1.031c-0.442,0.295-0.737,0.589-1.178,0.737
			c-0.442,0.147-0.884,0.295-1.473,0.442C184.58,466.906,184.138,467.053,183.401,467.053"/>
	</g>
	<g>
		<polygon fill="#FFFFFF" points="202.551,453.648 204.761,453.648 204.761,459.098 211.095,459.098 211.095,453.648 
			213.452,453.648 213.452,466.758 211.095,466.758 211.095,461.161 204.761,461.161 204.761,466.758 202.551,466.758 		"/>
	</g>
	<g>
		<path fill="#FFFFFF" d="M232.75,453.501h2.21l5.745,13.258H238.2l-1.326-3.241h-6.187l-1.326,3.241h-2.504L232.75,453.501z
			 M235.991,461.603l-2.21-5.303l-2.21,5.303H235.991z"/>
	</g>
	<g>
		<polygon fill="#FFFFFF" points="254.11,453.648 256.32,453.648 263.39,462.634 263.39,453.648 265.6,453.648 265.6,466.758 
			263.685,466.758 256.467,457.331 256.467,466.758 254.11,466.758 		"/>
	</g>
	<g>
		<rect x="280.478" y="453.648" fill="#FFFFFF" width="2.357" height="13.111"/>
	</g>
	<g>
		<path fill="#FFFFFF" d="M303.606,467.053c-1.031,0-1.915-0.147-2.652-0.589c-0.884-0.295-1.473-0.884-2.062-1.473
			c-0.589-0.589-1.031-1.326-1.473-2.21c-0.295-0.884-0.442-1.768-0.442-2.652l0,0c0-0.884,0.147-1.768,0.442-2.652
			c0.295-0.884,0.737-1.473,1.473-2.21c0.589-0.589,1.326-1.178,2.21-1.473c0.884-0.295,1.768-0.589,2.799-0.589
			c0.589,0,1.178,0,1.62,0.147s0.884,0.295,1.326,0.442c0.442,0.147,0.737,0.442,1.178,0.589c0.295,0.295,0.737,0.589,1.031,0.884
			l-1.473,1.768c-0.589-0.442-1.031-0.884-1.62-1.178s-1.326-0.442-2.062-0.442c-0.589,0-1.178,0.147-1.768,0.295
			c-0.589,0.295-1.031,0.589-1.326,1.031c-0.442,0.442-0.737,0.884-0.884,1.473c-0.147,0.589-0.295,1.178-0.295,1.768l0,0
			c0,0.589,0.147,1.178,0.295,1.768c0.147,0.589,0.442,1.031,0.884,1.473c0.442,0.442,0.884,0.737,1.326,1.031
			c0.589,0.295,1.178,0.295,1.768,0.295c0.737,0,1.473-0.147,2.062-0.442c0.589-0.295,1.178-0.737,1.768-1.178l1.473,1.473
			c-0.295,0.295-0.737,0.737-1.031,1.031c-0.442,0.295-0.737,0.589-1.178,0.737c-0.442,0.147-0.884,0.295-1.473,0.442
			C304.785,466.906,304.343,467.053,303.606,467.053"/>
	</g>
	<g>
		<path fill="#FFFFFF" d="M344.264,466.906c-1.031,0-1.915-0.147-2.946-0.589c-0.884-0.295-1.768-0.884-2.504-1.62l1.326-1.62
			c0.589,0.589,1.326,1.031,1.915,1.326s1.326,0.442,2.21,0.442c0.737,0,1.326-0.147,1.768-0.442
			c0.442-0.295,0.589-0.737,0.589-1.178l0,0c0-0.295,0-0.442-0.147-0.589c-0.147-0.147-0.295-0.295-0.442-0.589
			c-0.147-0.147-0.589-0.295-0.884-0.442c-0.442-0.147-0.884-0.295-1.473-0.442c-0.737-0.147-1.326-0.295-1.915-0.589
			c-0.589-0.147-1.031-0.442-1.326-0.737c-0.442-0.295-0.589-0.589-0.884-1.031s-0.295-0.884-0.295-1.473l0,0
			c0-0.589,0.147-1.031,0.295-1.62c0.295-0.442,0.589-0.884,0.884-1.178c0.442-0.295,0.884-0.589,1.473-0.737
			s1.178-0.295,1.768-0.295c1.031,0,1.768,0.147,2.652,0.442c0.737,0.295,1.473,0.737,2.21,1.178l-1.178,1.768
			c-0.589-0.442-1.178-0.737-1.768-1.031s-1.178-0.295-1.768-0.295c-0.737,0-1.178,0.147-1.62,0.442
			c-0.442,0.295-0.589,0.737-0.589,1.178l0,0c0,0.295,0,0.442,0.147,0.737c0.147,0.147,0.295,0.442,0.442,0.589
			c0.295,0.147,0.589,0.295,1.031,0.442c0.442,0.147,0.884,0.295,1.62,0.442c0.737,0.147,1.326,0.442,1.768,0.589
			c0.589,0.147,1.031,0.442,1.326,0.737s0.589,0.589,0.737,1.031c0.147,0.442,0.295,0.884,0.295,1.473l0,0
			c0,0.589-0.147,1.178-0.295,1.62c-0.295,0.442-0.589,0.884-1.031,1.178s-0.884,0.589-1.473,0.737
			C345.589,466.906,344.853,466.906,344.264,466.906"/>
	</g>
	<g>
		<polygon fill="#FFFFFF" points="362.972,453.648 372.694,453.648 372.694,455.71 365.182,455.71 365.182,459.098 371.811,459.098 
			371.811,461.161 365.182,461.161 365.182,464.696 372.694,464.696 372.694,466.758 362.972,466.758 		"/>
	</g>
	<g>
		<path fill="#FFFFFF" d="M386.836,453.648h5.892c0.884,0,1.62,0.147,2.21,0.295c0.589,0.295,1.178,0.589,1.62,1.031
			c0.295,0.295,0.589,0.737,0.737,1.326c0.147,0.442,0.295,1.031,0.295,1.62l0,0c0,0.589-0.147,1.031-0.295,1.473
			c-0.147,0.442-0.442,0.884-0.589,1.178c-0.295,0.295-0.589,0.589-1.031,0.884c-0.442,0.295-0.737,0.442-1.326,0.589l3.535,5.009
			h-2.799l-3.241-4.567l0,0h-2.799v4.272h-2.357v-13.111H386.836z M392.434,460.129c0.884,0,1.473-0.147,1.915-0.589
			c0.442-0.442,0.737-0.884,0.737-1.62l0,0c0-0.737-0.295-1.326-0.737-1.62c-0.442-0.442-1.178-0.589-2.062-0.589h-3.388v4.419
			H392.434z"/>
	</g>
	<g>
		<polygon fill="#FFFFFF" points="410.553,453.648 413.057,453.648 417.035,463.665 421.012,453.648 423.516,453.648 
			418.066,466.906 416.004,466.906 		"/>
	</g>
	<g>
		<rect x="437.216" y="453.648" fill="#FFFFFF" width="2.357" height="13.111"/>
	</g>
	<g>
		<path fill="#FFFFFF" d="M460.344,467.053c-1.031,0-1.915-0.147-2.652-0.589c-0.884-0.295-1.473-0.884-2.062-1.473
			c-0.589-0.589-1.031-1.326-1.473-2.21c-0.295-0.884-0.442-1.768-0.442-2.652l0,0c0-0.884,0.147-1.768,0.442-2.652
			c0.295-0.884,0.737-1.473,1.473-2.21c0.589-0.589,1.326-1.178,2.21-1.473s1.768-0.589,2.799-0.589c0.589,0,1.178,0,1.62,0.147
			c0.442,0.147,0.884,0.295,1.326,0.442c0.442,0.147,0.737,0.442,1.178,0.589c0.295,0.295,0.737,0.589,1.031,0.884l-1.473,1.768
			c-0.589-0.442-1.031-0.884-1.62-1.178s-1.326-0.442-2.062-0.442c-0.589,0-1.178,0.147-1.768,0.295
			c-0.589,0.295-1.031,0.589-1.326,1.031c-0.442,0.442-0.737,0.884-0.884,1.473c-0.147,0.589-0.295,1.178-0.295,1.768l0,0
			c0,0.589,0.147,1.178,0.295,1.768c0.147,0.589,0.442,1.031,0.884,1.473c0.442,0.442,0.884,0.737,1.326,1.031
			c0.589,0.295,1.178,0.295,1.768,0.295c0.737,0,1.473-0.147,2.062-0.442s1.178-0.737,1.768-1.178l1.473,1.473
			c-0.295,0.295-0.737,0.737-1.031,1.031c-0.442,0.295-0.737,0.589-1.178,0.737c-0.442,0.147-0.884,0.295-1.473,0.442
			C461.522,466.906,460.933,467.053,460.344,467.053"/>
	</g>
	<g>
		<polygon fill="#FFFFFF" points="479.347,453.648 489.069,453.648 489.069,455.71 481.704,455.71 481.704,459.098 488.333,459.098 
			488.333,461.161 481.704,461.161 481.704,464.696 489.217,464.696 489.217,466.758 479.347,466.758 		"/>
	</g>
</g>
</svg>
